<svg xmlns="http://www.w3.org/2000/svg" xmlns:xlink="http://www.w3.org/1999/xlink" viewBox="0,0,256,256" width="100px" height="100px" fill-rule="nonzero"><g fill="none" fill-rule="nonzero" stroke="none" stroke-width="none" stroke-linecap="butt" stroke-linejoin="none" stroke-miterlimit="10" stroke-dasharray="" stroke-dashoffset="0" font-family="none" font-weight="none" font-size="none" text-anchor="none" style="mix-blend-mode: normal"><path transform="scale(2.56,2.56)" d="M88.058,53.506c-0.148,1.949 -1.5,3.547 -3.271,3.978c-5.213,1.268 -7.687,7.241 -4.897,11.824c0.948,1.557 0.774,3.643 -0.499,5.126c-1.523,1.774 -3.182,3.433 -4.957,4.957c-1.483,1.273 -3.569,1.447 -5.126,0.499c-4.583,-2.791 -10.556,-0.317 -11.824,4.897c-0.431,1.771 -2.029,3.123 -3.978,3.271c-2.332,0.178 -4.679,0.178 -7.011,0c-1.949,-0.148 -3.547,-1.5 -3.978,-3.271c-1.268,-5.213 -7.241,-7.687 -11.824,-4.897c-1.557,0.948 -3.643,0.774 -5.126,-0.499c-1.774,-1.523 -3.433,-3.182 -4.957,-4.957c-1.273,-1.483 -1.447,-3.569 -0.499,-5.126c2.791,-4.583 0.317,-10.556 -4.897,-11.824c-1.771,-0.431 -3.123,-2.029 -3.271,-3.978c-0.178,-2.332 -0.178,-4.679 0,-7.011c0.148,-1.949 1.5,-3.547 3.271,-3.978c5.213,-1.268 7.687,-7.241 4.897,-11.824c-0.948,-1.557 -0.774,-3.643 0.499,-5.126c1.523,-1.774 3.182,-3.433 4.957,-4.957c1.483,-1.273 3.569,-1.447 5.126,-0.499c4.583,2.791 10.556,0.317 11.824,-4.897c0.431,-1.771 2.029,-3.123 3.978,-3.271c2.332,-0.178 4.679,-0.178 7.011,0c1.949,0.148 3.547,1.5 3.978,3.271c1.268,5.213 7.241,7.687 11.824,4.897c1.557,-0.948 3.643,-0.774 5.126,0.499c1.774,1.523 3.433,3.182 4.957,4.957c1.273,1.483 1.447,3.569 0.499,5.126c-2.791,4.583 -0.317,10.556 4.897,11.824c1.771,0.431 3.123,2.029 3.271,3.978c0.178,2.332 0.178,4.678 0,7.011z" id="strokeMainSVG" fill="#5c48bc" stroke="#5c48bc" stroke-width="8" stroke-linejoin="round"></path><g transform="scale(2.56,2.56)" stroke="none" stroke-width="1" stroke-linejoin="miter"><path d="M88.058,46.495c-0.148,-1.949 -1.5,-3.547 -3.271,-3.978v0c-5.214,-1.268 -7.688,-7.241 -4.897,-11.824v0c0.948,-1.557 0.774,-3.643 -0.499,-5.126c-1.524,-1.775 -3.183,-3.434 -4.957,-4.957c-1.483,-1.273 -3.569,-1.447 -5.126,-0.499v0c-4.583,2.79 -10.556,0.316 -11.824,-4.897v0c-0.431,-1.771 -2.029,-3.123 -3.978,-3.271c-2.332,-0.178 -4.679,-0.178 -7.011,0c-1.949,0.148 -3.547,1.5 -3.978,3.271v0c-1.268,5.214 -7.241,7.688 -11.824,4.897v0c-1.557,-0.948 -3.643,-0.774 -5.126,0.499c-1.775,1.524 -3.434,3.183 -4.957,4.957c-1.273,1.483 -1.447,3.569 -0.499,5.126v0c2.79,4.583 0.316,10.556 -4.897,11.824v0c-1.771,0.431 -3.123,2.029 -3.271,3.978c-0.178,2.332 -0.178,4.679 0,7.011c0.148,1.949 1.5,3.547 3.271,3.978v0c5.214,1.268 7.688,7.241 4.897,11.824v0c-0.948,1.557 -0.774,3.643 0.499,5.126c1.524,1.775 3.183,3.434 4.957,4.957c1.483,1.273 3.569,1.447 5.126,0.499v0c4.583,-2.79 10.556,-0.316 11.824,4.897v0c0.431,1.771 2.029,3.123 3.978,3.271c2.332,0.178 4.679,0.178 7.011,0c1.949,-0.148 3.547,-1.5 3.978,-3.271v0c1.268,-5.214 7.241,-7.688 11.824,-4.897v0c1.557,0.948 3.643,0.774 5.126,-0.499c1.775,-1.524 3.434,-3.183 4.957,-4.957c1.273,-1.483 1.447,-3.569 0.499,-5.126v0c-2.79,-4.583 -0.316,-10.556 4.897,-11.824v0c1.771,-0.431 3.123,-2.029 3.271,-3.978c0.178,-2.333 0.178,-4.679 0,-7.011z" fill="#4baafc"></path><circle cx="50" cy="50" r="24" fill="#b4dcff"></circle><circle cx="37.973" cy="49.027" r="5.973" fill="#ffffff"></circle><circle cx="37.973" cy="49.027" r="2.715" fill="#5c48bc"></circle><circle cx="63.027" cy="49.027" r="5.973" fill="#ffffff"></circle><circle cx="63.027" cy="49.027" r="2.715" fill="#5c48bc"></circle><path d="M50.454,60.579c2.864,0 5.224,-2.158 5.542,-4.936c0.039,-0.339 -0.21,-0.643 -0.552,-0.643c-1.929,0 -8.052,0 -9.981,0c-0.342,0 -0.591,0.304 -0.552,0.643c0.319,2.778 2.679,4.936 5.543,4.936z" fill="#5c48bc"></path></g></g></svg>